<?xml version="1.0" encoding="UTF-8"?>
<svg xmlns="http://www.w3.org/2000/svg" xmlns:xlink="http://www.w3.org/1999/xlink" width="80pt" height="80pt" viewBox="0 0 80 80" version="1.1">
<g id="surface1">
<path style=" stroke:none;fill-rule:nonzero;fill:rgb(86.666667%,31.764706%,16.470588%);fill-opacity:1;" d="M 5.957031 0 C 5.226562 0 4.679688 0.597656 4.742188 1.328125 L 10.921875 70.644531 C 10.988281 71.371094 11.617188 72.128906 12.324219 72.324219 L 38.546875 79.609375 C 39.253906 79.804688 40.410156 79.804688 41.117188 79.609375 L 67.417969 72.316406 C 68.128906 72.117188 68.757812 71.363281 68.820312 70.632812 L 75.011719 1.328125 C 75.078125 0.597656 74.53125 0 73.796875 0 Z M 61.851562 15.898438 C 61.792969 16.546875 61.695312 17.679688 61.628906 18.410156 L 61.464844 20.226562 C 61.398438 20.957031 61.304688 22.003906 61.257812 22.546875 C 61.210938 23.09375 61.160156 23.539062 61.152344 23.539062 C 61.144531 23.539062 60.539062 23.539062 59.804688 23.539062 L 41.210938 23.539062 C 40.476562 23.539062 39.867188 23.539062 39.863281 23.539062 C 39.855469 23.539062 39.25 23.539062 38.515625 23.539062 L 28.722656 23.539062 C 27.992188 23.539062 27.445312 24.136719 27.507812 24.867188 L 28.078125 31.253906 C 28.144531 31.980469 28.796875 32.582031 29.53125 32.582031 L 38.515625 32.582031 C 39.25 32.582031 39.855469 32.582031 39.863281 32.582031 C 39.871094 32.582031 40.476562 32.582031 41.210938 32.582031 L 56.652344 32.582031 C 57.382812 32.582031 58.523438 32.582031 59.175781 32.582031 C 59.828125 32.582031 60.316406 33.113281 60.253906 33.761719 C 60.195312 34.414062 60.09375 35.542969 60.027344 36.273438 L 58.191406 56.859375 C 58.125 57.589844 58.042969 58.523438 58.007812 58.929688 C 57.972656 59.339844 57.367188 59.835938 56.65625 60.035156 L 41.164062 64.332031 C 40.457031 64.523438 39.867188 64.6875 39.859375 64.691406 C 39.847656 64.695312 39.257812 64.535156 38.554688 64.335938 L 23.039062 60.035156 C 22.335938 59.835938 21.707031 59.082031 21.636719 58.351562 L 20.640625 47.144531 C 20.574219 46.414062 21.121094 45.816406 21.855469 45.816406 L 23.269531 45.816406 C 24.003906 45.816406 25.203125 45.816406 25.9375 45.816406 L 28.046875 45.816406 C 28.777344 45.816406 29.433594 46.414062 29.496094 47.144531 L 29.890625 51.53125 C 29.957031 52.257812 30.585938 53.015625 31.296875 53.203125 L 38.550781 55.164062 C 39.257812 55.355469 39.835938 55.511719 39.84375 55.511719 C 39.847656 55.511719 40.429688 55.355469 41.132812 55.164062 L 48.402344 53.199219 C 49.109375 53.007812 49.742188 52.257812 49.808594 51.523438 L 50.597656 42.738281 C 50.664062 42.007812 50.117188 41.410156 49.382812 41.410156 L 41.210938 41.410156 C 40.476562 41.410156 39.867188 41.410156 39.863281 41.410156 C 39.855469 41.410156 39.25 41.410156 38.515625 41.410156 L 21.460938 41.410156 C 20.726562 41.410156 20.074219 40.808594 20.007812 40.082031 L 18.074219 18.410156 C 18.007812 17.679688 17.910156 16.546875 17.851562 15.898438 C 17.792969 15.246094 18.34375 14.714844 19.078125 14.714844 L 38.515625 14.714844 C 39.25 14.714844 39.855469 14.714844 39.863281 14.714844 C 39.871094 14.714844 40.476562 14.714844 41.210938 14.714844 L 60.625 14.714844 C 61.355469 14.710938 61.910156 15.246094 61.851562 15.898438 Z M 61.851562 15.898438 "/>
</g>
</svg>
