<?xml version="1.0" encoding="UTF-8"?>
<svg xmlns="http://www.w3.org/2000/svg" xmlns:xlink="http://www.w3.org/1999/xlink" width="80pt" height="80pt" viewBox="0 0 80 80" version="1.1">
<g id="surface1">
<path style=" stroke:none;fill-rule:nonzero;fill:rgb(89.411765%,72.941176%,25.882353%);fill-opacity:1;" d="M 79.753906 39.878906 C 79.753906 45.070312 78.761719 50.039062 76.953125 54.585938 C 75.988281 57.023438 74.789062 59.339844 73.382812 61.511719 C 71.628906 64.222656 69.554688 66.703125 67.222656 68.902344 C 65.851562 70.195312 64.394531 71.386719 62.851562 72.476562 C 56.359375 77.0625 48.429688 79.753906 39.878906 79.753906 C 31.320312 79.753906 23.398438 77.0625 16.902344 72.476562 C 14.972656 71.113281 13.171875 69.585938 11.523438 67.914062 C 4.398438 60.710938 0 50.804688 0 39.878906 C 0 28.945312 4.398438 19.042969 11.523438 11.835938 C 13.273438 10.070312 15.1875 8.460938 17.242188 7.042969 C 23.671875 2.601562 31.472656 0 39.878906 0 C 48.285156 0 56.082031 2.601562 62.511719 7.042969 C 64.082031 8.125 65.570312 9.320312 66.964844 10.613281 C 69.40625 12.875 71.566406 15.433594 73.382812 18.242188 C 74.789062 20.414062 75.988281 22.730469 76.953125 25.167969 C 78.761719 29.71875 79.753906 34.679688 79.753906 39.878906 Z M 79.753906 39.878906 "/>
<path style=" stroke:none;fill-rule:nonzero;fill:rgb(94.901961%,94.901961%,94.901961%);fill-opacity:1;" d="M 60.914062 36.289062 C 59.804688 33.070312 55.253906 33.070312 54.367188 35.734375 C 53.476562 38.398438 56.476562 39.953125 61.136719 41.507812 C 65.796875 43.058594 68.683594 47.167969 68.128906 50.828125 C 67.570312 54.492188 66.023438 59.265625 56.808594 59.265625 C 51.050781 59.265625 47.851562 55.667969 46.257812 52.96875 L 51.476562 49.832031 C 51.476562 49.832031 53.257812 53.601562 56.585938 53.601562 C 59.914062 53.601562 61.246094 52.492188 61.246094 49.945312 C 61.246094 46.835938 50.480469 45.726562 48.816406 40.398438 C 47.148438 35.070312 49.367188 27.523438 57.140625 28.078125 C 61.996094 28.421875 64.726562 30.804688 66.09375 32.546875 Z M 60.914062 36.289062 "/>
<path style=" stroke:none;fill-rule:nonzero;fill:rgb(94.901961%,94.901961%,94.901961%);fill-opacity:1;" d="M 36.714844 28.632812 C 36.714844 28.632812 36.714844 47.390625 36.714844 49.945312 C 36.714844 52.492188 34.496094 53.828125 32.277344 53.382812 C 30.054688 52.941406 29.058594 50.273438 29.058594 50.273438 L 23.953125 53.714844 C 23.953125 53.714844 25.0625 58.820312 32.054688 59.265625 C 39.046875 59.710938 43.042969 55.492188 43.042969 51.941406 C 43.042969 48.390625 43.042969 28.632812 43.042969 28.632812 Z M 36.714844 28.632812 "/>
<path style=" stroke:none;fill-rule:nonzero;fill:rgb(94.901961%,94.901961%,94.901961%);fill-opacity:1;" d="M 11.523438 7.042969 L 11.523438 67.914062 C 13.171875 69.585938 14.972656 71.113281 16.902344 72.476562 L 62.851562 72.476562 C 64.394531 71.386719 65.851562 70.195312 67.222656 68.902344 L 15.09375 68.902344 L 15.09375 10.613281 L 73.382812 10.613281 L 73.382812 61.511719 C 74.789062 59.339844 75.988281 57.023438 76.953125 54.585938 L 76.953125 7.042969 Z M 11.523438 7.042969 "/>
<path style=" stroke:none;fill-rule:nonzero;fill:rgb(24.705882%,29.019608%,26.27451%);fill-opacity:1;" d="M 20.011719 52.828125 C 20.011719 56.320312 17.179688 59.152344 13.6875 59.152344 C 10.195312 59.152344 7.359375 56.320312 7.359375 52.828125 C 7.359375 49.335938 10.195312 46.5 13.6875 46.5 C 17.179688 46.5 20.011719 49.335938 20.011719 52.828125 Z M 20.011719 52.828125 "/>
</g>
</svg>
